<svg width="26" height="36" viewBox="0 0 26 36" fill="none" xmlns="http://www.w3.org/2000/svg">
<path fill-rule="evenodd" clip-rule="evenodd" d="M25.6026 20.6132V4.28023C18.1303 -0.832995 8.29891 -0.832995 0.837891 4.28023V20.6132H3.0841C3.23084 20.173 3.47916 19.7779 3.79521 19.4506C4.32572 18.9201 5.04812 18.5928 5.84953 18.5928C6.65094 18.5928 7.38463 18.9201 7.90385 19.4506L7.96029 19.507C8.25376 19.8231 8.47951 20.1956 8.61496 20.6132H17.8143C17.961 20.173 18.2093 19.7779 18.5254 19.4506C19.0559 18.9201 19.7783 18.5928 20.5797 18.5928C21.3811 18.5928 22.1148 18.9201 22.634 19.4506L22.6904 19.507C22.9839 19.8231 23.2097 20.1956 23.3451 20.6132H25.5913H25.6026ZM4.04353 15.9741V6.8312H22.3857V15.9741H4.04353Z" fill="#3D8068"/>
<path fill-rule="evenodd" clip-rule="evenodd" d="M25.7607 33.9436L21.4263 26.4487H22.9952C24.4174 26.4487 25.5913 25.2861 25.5913 23.8526V22.3965H23.3451C23.1984 22.8367 22.9501 23.2318 22.634 23.5591C22.1035 24.0896 21.3811 24.4169 20.5797 24.4169C19.7783 24.4169 19.0559 24.0896 18.5254 23.5591C18.198 23.2318 17.961 22.8367 17.8143 22.3965H8.61498C8.46824 22.8367 8.21992 23.2318 7.90387 23.5591C7.37336 24.0896 6.65096 24.4169 5.84955 24.4169C5.04814 24.4169 4.32574 24.0896 3.79523 23.5591C3.46789 23.2318 3.23085 22.8367 3.08412 22.3965H0.837908V23.8526C0.837908 25.2748 2.00052 26.4487 3.43403 26.4487H5.27389L4.179 28.345C4.179 28.345 4.13385 28.4127 4.11128 28.4579L0.939496 33.9549C0.691171 34.3838 0.837908 34.9256 1.26683 35.1739C1.69576 35.4222 2.23756 35.2755 2.48588 34.8466L3.59205 32.939H23.0742C23.0742 32.939 23.1081 32.939 23.1307 32.939L24.2368 34.8579C24.4852 35.2868 25.027 35.4222 25.4559 35.1852C25.8848 34.9369 26.0203 34.3951 25.7832 33.9661L25.7607 33.9436ZM7.31692 26.4487H19.3832L20.2524 27.9499H6.45907L7.32821 26.4487H7.31692ZM4.60793 31.1443L5.42062 29.7333H21.2795L22.0922 31.1443H4.60793Z" fill="#67A795"/>
<path fill-rule="evenodd" clip-rule="evenodd" d="M19.7896 22.3071C19.9927 22.5103 20.2749 22.6344 20.591 22.6344C20.907 22.6344 21.1892 22.5103 21.3924 22.3071C21.5956 22.1039 21.7197 21.8218 21.7197 21.5057C21.7197 21.1897 21.6068 20.9413 21.4262 20.7382L21.3924 20.7043C21.1892 20.5011 20.907 20.377 20.591 20.377C20.2749 20.377 19.9927 20.5011 19.7896 20.7043C19.5864 20.9075 19.4622 21.1897 19.4622 21.5057C19.4622 21.8218 19.5864 22.1039 19.7896 22.3071Z" fill="#67A795"/>
<path fill-rule="evenodd" clip-rule="evenodd" d="M5.07068 22.3071C5.27386 22.5103 5.55605 22.6344 5.87209 22.6344C6.18814 22.6344 6.47033 22.5103 6.67351 22.3071C6.87668 22.1039 7.00084 21.8218 7.00084 21.5057C7.00084 21.1897 6.88797 20.9413 6.70737 20.7382L6.67351 20.7043C6.47033 20.5011 6.18814 20.377 5.87209 20.377C5.55605 20.377 5.27386 20.5011 5.07068 20.7043C4.86751 20.9075 4.74335 21.1897 4.74335 21.5057C4.74335 21.8218 4.86751 22.1039 5.07068 22.3071Z" fill="#67A795"/>
</svg>
