<svg width="64" height="64" viewBox="0 0 64 64" fill="none" xmlns="http://www.w3.org/2000/svg">
<g clip-path="url(#clip0_74_1483)">
<circle cx="32" cy="32" r="32" fill="#1A2C44"/>
<g clip-path="url(#clip1_74_1483)">
<path d="M26.1895 16C24.9768 16 24 16.9768 24 18.1895V45.8105C24 47.0232 24.9768 48 26.1895 48H38.5516C39.7642 48 40.7411 47.0232 40.7411 45.8105V18.1895C40.7411 16.9768 39.7642 16 38.5516 16H26.1895ZM30.1979 17.4484H34.5768C34.7789 17.4484 34.9474 17.6168 34.9474 17.8189C34.9474 18.0211 34.7789 18.1895 34.5768 18.1895H30.1979C29.9958 18.1895 29.8274 18.0211 29.8274 17.8189C29.8274 17.6168 29.9958 17.4484 30.1979 17.4484ZM25.4821 19.6379H39.2926V42.9137H25.4821V19.6379ZM32.3874 43.9916C33.1958 43.9916 33.8358 44.6316 33.8358 45.44C33.8358 46.2484 33.1958 46.8884 32.3874 46.8884C31.5789 46.8884 30.9389 46.2484 30.9389 45.44C30.9389 44.6316 31.5789 43.9916 32.3874 43.9916Z" fill="#F8F6F1"/>
</g>
</g>
<defs>
<clipPath id="clip0_74_1483">
<rect width="64" height="64" fill="white"/>
</clipPath>
<clipPath id="clip1_74_1483">
<rect width="16.7411" height="32" fill="white" transform="translate(24 16)"/>
</clipPath>
</defs>
</svg>
